<svg width="50" height="50" viewBox="0 0 50 50" fill="none" xmlns="http://www.w3.org/2000/svg">
<path d="M17.4118 14.7033L6.34581 33.9188L25.537 45.027L36.603 25.8114C36.603 25.8114 41.0513 24.4662 42.3716 19.8338C43.2323 16.8139 41.7947 14.7067 40.8943 14.3204C41.6488 13.0103 42.2855 9.88498 39.92 7.93356C37.1687 5.64224 35.0554 6.28241 35.0554 6.28241C35.0554 6.28241 34.3332 3.75537 31.1967 2.88435C28.1886 2.04894 25.9469 3.92175 25.1924 5.23186C25.1924 5.23186 22.401 3.61618 19.6911 6.70603C17.9974 8.63715 17.1948 12.1943 17.4118 14.7033Z" fill="white"/>
<ellipse rx="2.01451" ry="2.52144" transform="matrix(0.987 0.160723 -0.158983 0.987281 29.9063 9.23472)" fill="#FF99A2"/>
<ellipse rx="2.01719" ry="2.5181" transform="matrix(0.656997 0.753893 -0.752751 0.658306 35.798 12.4051)" fill="#FF99A2"/>
<ellipse rx="2.01801" ry="2.51707" transform="matrix(0.348248 0.937402 -0.937259 0.348634 37.9281 19.68)" fill="#FF99A2"/>
<ellipse rx="2.01366" ry="2.52251" transform="matrix(-0.986007 0.166704 0.167109 0.985938 22.9912 11.1799)" fill="#FF99A2"/>
<path fill-rule="evenodd" clip-rule="evenodd" d="M31.8622 18.2027C32.3857 17.0366 31.952 15.6389 30.8223 14.985C29.6926 14.3311 28.2683 14.6534 27.5228 15.6909C26.2038 15.0871 24.651 15.6025 23.9261 16.8612C23.2159 18.0944 23.5175 19.6672 24.6799 20.4887C25.3687 20.9756 26.1427 21.4951 26.8405 21.899C27.5382 22.3028 28.374 22.7151 29.139 23.0697C30.4298 23.6682 31.9392 23.1436 32.6494 21.9104C33.3742 20.6518 33.0431 19.046 31.8622 18.2027Z" fill="#FF99A2"/>
</svg>
