<svg width="22" height="22" viewBox="0 0 22 22" fill="none" xmlns="http://www.w3.org/2000/svg">
<path d="M10.9997 15.3746C13.4119 15.3746 15.3675 13.4181 15.3675 11.0047C15.3675 8.59124 13.4119 6.63477 10.9997 6.63477C8.58737 6.63477 6.63184 8.59124 6.63184 11.0047C6.63184 13.4181 8.58737 15.3746 10.9997 15.3746Z" stroke="#1B1E21" stroke-miterlimit="10" stroke-linecap="round"/>
<path d="M21 12.0014V9.99856C21 9.43316 20.5498 8.98275 19.9847 8.98275H19.1992C18.7874 8.98275 18.3946 8.73359 18.251 8.35026C18.1743 8.13943 18.0881 7.93819 18.0019 7.73694C17.8295 7.3632 17.9349 6.92238 18.2222 6.63488L18.7778 6.07906C19.1705 5.68615 19.1705 5.0345 18.7778 4.64159L17.3602 3.22329C16.9674 2.83038 16.3161 2.83038 15.9234 3.22329L15.3678 3.77911C15.0805 4.0666 14.6303 4.17202 14.2663 3.99952C14.0651 3.90369 13.864 3.82702 13.6533 3.75036C13.2605 3.60661 13.0211 3.2137 13.0211 2.80163V2.01581C13.0211 1.45041 12.5709 1 12.0057 1H9.99425C9.42912 1 8.97893 1.45041 8.97893 2.01581V2.79205C8.97893 3.20412 8.72989 3.59703 8.34674 3.74078C8.13602 3.81744 7.93487 3.90369 7.73372 3.99952C7.36015 4.17202 6.91954 4.0666 6.63218 3.77911L6.07663 3.22329C5.68391 2.83038 5.03257 2.83038 4.63985 3.22329L3.22222 4.64159C2.8295 5.0345 2.8295 5.68615 3.22222 6.07906L3.77778 6.63488C4.06513 6.92238 4.1705 7.37278 3.99808 7.73694C3.9023 7.93819 3.82567 8.13943 3.74904 8.35026C3.60536 8.74317 3.21264 8.98275 2.79119 8.98275H2.01533C1.45019 8.98275 1 9.43316 1 9.99856V12.0014C1 12.5668 1.45019 13.0172 2.01533 13.0172H2.79119C3.20307 13.0172 3.59579 13.2664 3.73946 13.6497C3.81609 13.8606 3.9023 14.0618 3.98851 14.2631C4.1705 14.6368 4.06513 15.0872 3.77778 15.3747L3.22222 15.9305C2.8295 16.3234 2.8295 16.9751 3.22222 17.368L4.63985 18.7863C5.03257 19.1792 5.68391 19.1792 6.07663 18.7863L6.63218 18.2305C6.91954 17.943 7.36973 17.8376 7.73372 18.0101C7.93487 18.1059 8.13602 18.1826 8.34674 18.2592C8.73946 18.403 8.97893 18.7959 8.97893 19.208V19.9842C8.97893 20.5496 9.42912 21 9.99425 21H11.9962C12.5613 21 13.0115 20.5496 13.0115 19.9842V19.208C13.0115 18.7959 13.2605 18.403 13.6437 18.2592C13.8544 18.1826 14.0556 18.0963 14.2567 18.0101C14.6303 17.8376 15.0709 17.943 15.3582 18.2305L15.9138 18.7863C16.3065 19.1792 16.9579 19.1792 17.3506 18.7863L18.7682 17.368C19.1609 16.9751 19.1609 16.3234 18.7682 15.9305L18.2126 15.3747C17.9253 15.0872 17.8199 14.6368 17.9923 14.2726C18.0881 14.0714 18.1648 13.8701 18.2414 13.6593C18.3851 13.2664 18.7778 13.0268 19.1897 13.0268H19.9655C20.5402 13.0172 21 12.5668 21 12.0014Z" stroke="#1B1E21" stroke-miterlimit="10" stroke-linecap="round"/>
</svg>
